<svg xmlns="http://www.w3.org/2000/svg" xmlns:xlink="http://www.w3.org/1999/xlink" aria-hidden="true" role="img" class="iconify iconify--jdme iconify--local" width="1em" height="1em" viewBox="0 0 20 20"><g fill="currentColor"><path d="M7.906 8.25a.75.75 0 01.75.75v5a.75.75 0 01-1.5 0V9a.75.75 0 01.75-.75m4 0a.75.75 0 01.75.75v5a.75.75 0 11-1.5 0V9a.75.75 0 01.75-.75"></path><path d="M1.906 3.75h4.25V3A2.25 2.25 0 018.406.75h3A2.25 2.25 0 0113.656 3v.75h4.25a.75.75 0 110 1.5h-.25V16.1a3.15 3.15 0 01-3.15 3.15h-9.2a3.15 3.15 0 01-3.15-3.15V5.25h-.25a.75.75 0 010-1.5m10.25 0V3a.75.75 0 00-.75-.75h-3a.75.75 0 00-.75.75v.75zm4 1.5h-12.5V16.1c0 .911.739 1.65 1.65 1.65h9.2a1.65 1.65 0 001.65-1.65z"></path></g></svg>