<svg xmlns="http://www.w3.org/2000/svg" xmlns:xlink="http://www.w3.org/1999/xlink" aria-hidden="true" role="img" class="iconify iconify--jdme iconify--local" width="1em" height="1em" viewBox="0 0 20 20"><g fill="currentColor"><path fill-rule="evenodd" d="M1.25 10A.75.75 0 012 9.25h9a.75.75 0 010 1.5H2a.75.75 0 01-.75-.75" clip-rule="evenodd"></path><path fill-rule="evenodd" d="M11.75 10a.75.75 0 01-.22.53l-4 4a.75.75 0 01-1.06-1.06L9.94 10 6.47 6.53a.75.75 0 111.06-1.06l4 3.999c.141.14.22.331.22.53" clip-rule="evenodd"></path><path d="M14.5 3a.5.5 0 01.5-.5h2a.5.5 0 01.5.5v14a.5.5 0 01-.5.5h-2a.5.5 0 01-.5-.5zM13 17a2 2 0 002 2h2a2 2 0 002-2V3a2 2 0 00-2-2h-2a2 2 0 00-2 2z"></path></g></svg>